# xmcd CD database file
#
# Track frame offsets:
#	150
#	12339
#	28447
#	41737
#	55829
#	81479
#	92980
#	105279
#	115831
#	129948
#	142261
#	157768
#	166926
#	178023
#	189841
#
# Disc length: 2764 seconds
#
# Revision: 0
# Processed by: cddbd v1.4PL0 Copyright (c) Steve Scherf et al.
# Submitted via: CDex 1.50beta9
#
DISCID=c30aca0f
DTITLE=Various Artist - Nothin' But The Blues CD2
DYEAR=2001
DGENRE=Blues
TTITLE0=Robert Johnson - Cross Road Blues
TTITLE1=Santana - Black Magic Woman
TTITLE2=John Lee Hooker - One Bourbon, One Scotch, One Beer
TTITLE3=Leadbelly - Midnight Special
TTITLE4=Howlin' Wolf - Little Red Rooster
TTITLE5=Erma Franklin - (Take A Little) Piece Of My Heart
TTITLE6=Little Walter - Juke
TTITLE7=Memphis Slim - Gotta Find My Baby
TTITLE8=Otis Rush - I Can't Quit You Baby
TTITLE9=T-Bone Walker - No Worry Blues
TTITLE10=Muddy Waters - Country Blues
TTITLE11=Memphis Slim - Steppin' Out
TTITLE12=Howlin' Wolf Featuring Willie Johnson - Mr Highway Man
TTITLE13=Red Nelson - Crying Mother Blues
TTITLE14=Fleetwood Mac - Need Your Love So Bad
EXTD=YEAR: 2001
EXTT0=
EXTT1=
EXTT2=
EXTT3=
EXTT4=
EXTT5=
EXTT6=
EXTT7=
EXTT8=
EXTT9=
EXTT10=
EXTT11=
EXTT12=
EXTT13=
EXTT14=
PLAYORDER=
